<?xml version="1.0" encoding="UTF-8" standalone="no" ?>
<!DOCTYPE svg PUBLIC "-//W3C//DTD SVG 1.1//EN" "http://www.w3.org/Graphics/SVG/1.1/DTD/svg11.dtd">
<svg xmlns="http://www.w3.org/2000/svg" xmlns:xlink="http://www.w3.org/1999/xlink" version="1.1" width="1080" height="1080" viewBox="0 0 1080 1080" xml:space="preserve">
<desc>Created with Fabric.js 5.2.4</desc>
<defs>
</defs>
<g transform="matrix(1 0 0 1 540 540)" id="51760526-25c9-4b22-b0ca-9f9904c6b300"  >
<rect style="stroke: none; stroke-width: 1; stroke-dasharray: none; stroke-linecap: butt; stroke-dashoffset: 0; stroke-linejoin: miter; stroke-miterlimit: 4; fill: rgb(255,255,255); fill-rule: nonzero; opacity: 1; visibility: hidden;" vector-effect="non-scaling-stroke"  x="-540" y="-540" rx="0" ry="0" width="1080" height="1080" />
</g>
<g transform="matrix(1 0 0 1 540 540)" id="2663a01f-a4c3-41a1-b494-fb8f7284e5a9"  >
</g>
<g transform="matrix(1.91 0 0 1.91 540 540)"  >
<linearGradient id="SVGID_paint0_linear_1_3_3" gradientUnits="userSpaceOnUse" gradientTransform="matrix(1 0 0 1 0 0)" x1="469.807" y1="52.6107" x2="282.721" y2="511.09">
  <stop offset="0%" style="stop-color:rgb(131,111,255);stop-opacity:1"/>
  <stop offset="100%" style="stop-color:rgb(21,245,186);stop-opacity:1"/>
    <animate attributeName="x1" values="469.807;282.721;469.807" dur="20s" repeatCount="indefinite" calcMode="paced" keyTimes="0;0.5;1"/>
  <animate attributeName="y1" values="52.6107;311.09;52.6107" dur="10s" repeatCount="indefinite" calcMode="paced" keyTimes="0;0.5;1"/>
  <animate attributeName="x2" values="282.721;469.807;282.721" dur="10s" repeatCount="indefinite" calcMode="paced" keyTimes="0;0.5;1"/>
 
</linearGradient>
<path style="stroke: none; stroke-width: 1; stroke-dasharray: none; stroke-linecap: butt; stroke-dashoffset: 0; stroke-linejoin: miter; stroke-miterlimit: 4; fill: url(#SVGID_paint0_linear_1_3_3); fill-rule: evenodd; opacity: 1;"  transform=" translate(-282.5, -255.5)" d="M 272.291 0.272354 C 311.301 4.31424 324.25 62.6858 362.041 73.1628 C 420.026 89.2382 492.459 36.8308 539.487 74.3476 C 580.626 107.167 554.443 175.954 556.766 228.507 C 559.195 283.478 575.845 340.457 553.47 390.734 C 530.424 442.519 487.355 490.52 432.985 506.644 C 379.683 522.452 325.121 491.439 272.291 474.122 C 232.643 461.127 202.142 431.883 162.769 418.074 C 111.717 400.169 35.8436 427.336 7.52854 381.263 C -20.4568 335.726 37.9844 281.301 46.2679 228.507 C 52.9701 185.792 26.3811 136.327 51.4852 101.112 C 76.8296 65.5601 131.383 71.5239 171.112 53.3802 C 206.362 37.2822 233.742 -3.72184 272.291 0.272354 Z" stroke-linecap="round">
<animate attributeName="d" dur="10000ms" repeatCount="indefinite"
values="M54.7,-42.8C70.3,-24.1,81.9,-1.4,79.3,21.3C76.7,44.1,59.9,66.8,39.5,73.3C19.1,79.8,-5,70.1,-22.8,57.6C-40.6,45.1,-52.2,29.8,-57.1,12C-62,-5.9,-60.4,-26.4,-49.7,-44C-39.1,-61.6,-19.6,-76.3,0,-76.3C19.6,-76.3,39.1,-61.6,54.7,-42.8Z;
M55.1,-45.3C68.3,-27.2,74.1,-4.5,68.6,14.2C63.2,33,46.7,47.8,27.5,57C8.3,66.2,-13.6,69.9,-30.9,62.2C-48.3,54.6,-61.2,35.8,-68.1,13.3C-75.1,-9.3,-76.2,-35.4,-63.8,-53.3C-51.5,-71.1,-25.7,-80.7,-2.4,-78.7C20.9,-76.8,41.8,-63.4,55.1,-45.3Z;
M54.5,-37.9C70.7,-23.1,84.1,-0.4,79.5,17.7C75,35.8,52.6,49.3,29.9,59.2C7.1,69.1,-16.1,75.3,-35.2,68C-54.3,60.8,-69.4,40,-75.3,16.5C-81.2,-7,-78,-33.3,-63.9,-47.7C-49.8,-62,-24.9,-64.4,-2.9,-62.1C19.1,-59.8,38.3,-52.8,54.5,-37.9Z;
M49,-39.5C64.5,-19.6,78.9,0.8,76,19C73.2,37.2,53.2,53,30.9,63.6C8.6,74.1,-16,79.2,-32.2,70.1C-48.4,61.1,-56.3,37.9,-57.8,17.2C-59.3,-3.5,-54.5,-21.6,-43.8,-40.4C-33.1,-59.2,-16.6,-78.8,0.1,-78.9C16.7,-78.9,33.5,-59.5,49,-39.5Z;"
/>
</path>
</g>
</svg>

 